<svg xmlns="http://www.w3.org/2000/svg" width="339.333" height="363.469" viewBox="0 0 339.333 363.469">
  <g id="Group_9" data-name="Group 9" transform="translate(-346 -79)">
    <g id="Logo" transform="translate(346 79)">
      <g id="bear" transform="translate(-17)">
        <g id="Group_3" data-name="Group 3" transform="translate(17)">
          <g id="Group_1" data-name="Group 1">
            <path id="Path_1" data-name="Path 1" d="M398.225,108.056a59.866,59.866,0,1,0-94.176-60.169,377.2,377.2,0,0,0-51.143-3.477l-7.573,145.607,7.573,131.722h89.717l7.561-2.25a95.089,95.089,0,0,0,66.526-107.924Z" transform="translate(-83.239)" fill="#3d5afe"/>
            <path id="Path_2" data-name="Path 2" d="M135.523,47.886a59.867,59.867,0,1,0-94.176,60.17L22.863,211.564A95.09,95.09,0,0,0,89.388,319.489l7.561,2.25h89.717V44.41a377.3,377.3,0,0,0-51.143,3.476Z" transform="translate(-17 0)" fill="#8c9eff"/>
          </g>
          <g id="Group_2" data-name="Group 2" transform="translate(79.95 118.516)">
            <path id="Path_3" data-name="Path 3" d="M307.66,269.141c-3.656-2.735-6.98-5.277-9.879-7.555a88.873,88.873,0,0,1-34.366-70.2V166.948H252.905l-7.573,154.085,7.573,74.432a51.163,51.163,0,0,0,37.7,16.435h.267a53.348,53.348,0,0,0,51.734-41.726l.013,0V338.91A87.556,87.556,0,0,0,307.66,269.141Z" transform="translate(-163.189 -166.947)" fill="#efe2dd"/>
            <path id="Path_4" data-name="Path 4" d="M208.828,166.948v24.441a88.873,88.873,0,0,1-34.366,70.2c-2.9,2.278-6.224,4.82-9.879,7.555a87.556,87.556,0,0,0-34.962,69.768v31.26l.013,0A53.348,53.348,0,0,0,181.368,411.9a51.183,51.183,0,0,0,37.969-16.435V166.947H208.828Z" transform="translate(-129.621 -166.947)" fill="#f7f0eb"/>
          </g>
        </g>
        <g id="Group_4" data-name="Group 4" transform="translate(109.86 151.849)">
          <path id="Path_5" data-name="Path 5" d="M147.807,213.9h21.3v21.3h-21.3Z" transform="translate(-147.807 -213.902)" fill="#1b303e"/>
          <path id="Path_6" data-name="Path 6" d="M334.193,213.9h21.3v21.3h-21.3Z" transform="translate(-201.877 -213.902)" fill="#14242f"/>
        </g>
        <g id="Group_5" data-name="Group 5" transform="translate(142.618 247.441)">
          <path id="Path_7" data-name="Path 7" d="M261.734,348.557h-10.3l-11.17,30.222,11.17,49.436,27.663-16.97a33.749,33.749,0,0,0-17.364-62.689Z" transform="translate(-207.387 -348.557)" fill="#42a5f5"/>
          <path id="Path_8" data-name="Path 8" d="M227.7,348.557a33.75,33.75,0,0,0-17.364,62.689L238,428.215V348.557Z" transform="translate(-193.951 -348.557)" fill="#64b5f6"/>
        </g>
        <g id="Group_6" data-name="Group 6" transform="translate(46.501 29.553)">
          <path id="Path_9" data-name="Path 9" d="M74.361,98.157a173.77,173.77,0,0,1,44.221-28.716A30.055,30.055,0,1,0,74.361,98.157Z" transform="translate(-58.556 -41.63)" fill="#f7f0eb"/>
          <path id="Path_10" data-name="Path 10" d="M413.109,98.157a173.77,173.77,0,0,0-44.221-28.716,30.055,30.055,0,1,1,44.221,28.716Z" transform="translate(-148.583 -41.63)" fill="#f7f0eb"/>
        </g>
      </g>
      <path id="Polygon_1" data-name="Polygon 1" d="M9.5,0,19,16H0Z" transform="translate(141 275)" fill="#14242f"/>
      <path id="Polygon_2" data-name="Polygon 2" d="M9.5,0,19,16H0Z" transform="translate(181 275)" fill="#14242f"/>
    </g>
  </g>
</svg>
